<svg width="15" height="8" viewBox="0 0 15 8" fill="none" xmlns="http://www.w3.org/2000/svg">
<path d="M14.7783 0.236365C14.7086 0.161469 14.6257 0.102022 14.5344 0.0614545C14.443 0.0208866 14.345 0 14.2461 0C14.1471 0 14.0492 0.0208866 13.9578 0.0614545C13.8665 0.102022 13.7836 0.161469 13.7139 0.236365L8.99913 5.27053L5.7835 1.83451C5.71381 1.75962 5.63091 1.70017 5.53957 1.6596C5.44823 1.61903 5.35026 1.59815 5.2513 1.59815C5.15235 1.59815 5.05438 1.61903 4.96304 1.6596C4.8717 1.70017 4.78879 1.75962 4.71911 1.83451L0.22172 6.62895C0.151465 6.70324 0.0957012 6.79161 0.0576468 6.88899C0.0195923 6.98636 0 7.09081 0 7.19629C0 7.30178 0.0195923 7.40622 0.0576468 7.5036C0.0957012 7.60097 0.151465 7.68935 0.22172 7.76363C0.291402 7.83853 0.374305 7.89798 0.465646 7.93855C0.556988 7.97911 0.65496 8 0.753912 8C0.852863 8 0.950835 7.97911 1.04218 7.93855C1.13352 7.89798 1.21642 7.83853 1.2861 7.76363L5.2513 3.52855L8.46694 6.96456C8.53662 7.03946 8.61952 7.0989 8.71087 7.13947C8.80221 7.18004 8.90018 7.20093 8.99913 7.20093C9.09808 7.20093 9.19605 7.18004 9.2874 7.13947C9.37874 7.0989 9.46164 7.03946 9.53132 6.96456L14.7783 1.37105C14.8485 1.29676 14.9043 1.20839 14.9424 1.11101C14.9804 1.01364 15 0.909194 15 0.803707C15 0.698219 14.9804 0.593776 14.9424 0.496402C14.9043 0.399027 14.8485 0.310649 14.7783 0.236365Z" fill="#FCF8FF"/>
</svg>
