<svg width="14" height="11" viewBox="0 0 14 11" fill="none" xmlns="http://www.w3.org/2000/svg">
<path d="M3.5 10.5C2.53485 10.5 1.71012 10.1703 1.02582 9.51099C0.341515 8.85165 -0.000423848 8.04579 3.94277e-07 7.09341C3.94277e-07 6.27708 0.249243 5.54971 0.747728 4.9113C1.24621 4.27289 1.89848 3.86473 2.70455 3.68681C2.94848 2.83909 3.402 2.12742 4.06509 1.55181C4.72818 0.976191 5.49436 0.625589 6.36364 0.5V5.57064L5.34545 4.59733L4.45455 5.47645L7 7.98823L9.54545 5.47645L8.65455 4.59733L7.63636 5.57064V0.5C8.72879 0.64652 9.63836 1.13066 10.3651 1.95243C11.0918 2.7742 11.455 3.73956 11.4545 4.84851C12.1864 4.93223 12.7937 5.24369 13.2765 5.78289C13.7592 6.32208 14.0004 6.95254 14 7.67425C14 8.45918 13.7215 9.12648 13.1645 9.67614C12.6074 10.2258 11.9314 10.5004 11.1364 10.5H3.5Z" fill="#EED7FF"/>
</svg>
