<svg width="16" height="16" viewBox="0 0 16 16" fill="none" xmlns="http://www.w3.org/2000/svg">
<path d="M5.76 8.56C5.61333 8.41333 5.54 8.22667 5.54 8C5.54 7.77333 5.61333 7.58667 5.76 7.44L8.24 4.96C8.38667 4.81333 8.56987 4.74 8.7896 4.74C9.00933 4.74 9.19947 4.82 9.36 4.98C9.50667 5.12667 9.58 5.31333 9.58 5.54C9.58 5.76667 9.50667 5.95333 9.36 6.1L7.46 8L9.38 9.92C9.52667 10.0667 9.6 10.2499 9.6 10.4696C9.6 10.6893 9.52 10.8795 9.36 11.04C9.21333 11.1867 9.02667 11.26 8.8 11.26C8.57333 11.26 8.38667 11.1867 8.24 11.04L5.76 8.56ZM1.30337e-06 8C1.25499e-06 9.10667 0.210135 10.1467 0.630401 11.12C1.05067 12.0933 1.62053 12.94 2.34 13.66C3.06 14.38 3.90667 14.9499 4.88 15.3696C5.85333 15.7893 6.89333 15.9995 8 16C9.10667 16 10.1467 15.7899 11.12 15.3696C12.0933 14.9493 12.94 14.3795 13.66 13.66C14.38 12.94 14.9499 12.0933 15.3696 11.12C15.7893 10.1467 15.9995 9.10667 16 8C16 6.89333 15.7899 5.85334 15.3696 4.88C14.9493 3.90667 14.3795 3.06 13.66 2.34C12.94 1.62 12.0933 1.04987 11.12 0.629602C10.1467 0.209336 9.10667 -0.000531489 8 1.79608e-06C6.89333 1.7477e-06 5.85333 0.210135 4.88 0.630402C3.90667 1.05067 3.06 1.62053 2.34 2.34C1.62 3.06 1.04987 3.90667 0.629602 4.88C0.209335 5.85333 -0.000531982 6.89333 1.30337e-06 8Z" fill="black"/>
</svg>
