<svg width="37" height="37" viewBox="0 0 37 37" fill="none" xmlns="http://www.w3.org/2000/svg">
<path d="M8.22222 28.7778H16.4444V20.5556H8.22222V28.7778ZM20.5556 28.7778H28.7778V20.5556H20.5556V28.7778ZM8.22222 16.4444H16.4444V8.22222H8.22222V16.4444ZM20.5556 16.4444H28.7778V8.22222H20.5556V16.4444ZM4.11111 37C2.98056 37 2.01239 36.5971 1.20661 35.7913C0.400836 34.9856 -0.00136688 34.0181 3.48991e-06 32.8889V4.11111C3.48991e-06 2.98056 0.402892 2.01239 1.20867 1.20661C2.01445 0.400836 2.98193 -0.00136688 4.11111 3.48991e-06H32.8889C34.0194 3.48991e-06 34.9876 0.402892 35.7934 1.20867C36.5992 2.01445 37.0014 2.98193 37 4.11111V32.8889C37 34.0194 36.5971 34.9876 35.7913 35.7934C34.9856 36.5992 34.0181 37.0014 32.8889 37H4.11111Z" fill="#B94DAE"/>
</svg>
