<svg width="253" height="281" viewBox="0 0 253 281" fill="none" xmlns="http://www.w3.org/2000/svg">
<path d="M210.833 281C199.12 281 189.164 276.902 180.965 268.706C172.766 260.51 168.667 250.558 168.667 238.85C168.667 237.211 168.784 235.511 169.018 233.75C169.252 231.998 169.604 230.42 170.072 229.015L70.9806 171.41C66.9981 174.922 62.5472 177.672 57.6278 179.657C52.7083 181.652 47.5546 182.65 42.1667 182.65C30.4537 182.65 20.4977 178.552 12.2986 170.356C4.09954 162.16 0 152.208 0 140.5C0 128.792 4.09954 118.84 12.2986 110.644C20.4977 102.448 30.4537 98.35 42.1667 98.35C47.5546 98.35 52.7083 99.3429 57.6278 101.329C62.5472 103.324 66.9981 106.078 70.9806 109.59L170.072 51.985C169.604 50.58 169.252 49.0017 169.018 47.2501C168.784 45.4892 168.667 43.7892 168.667 42.15C168.667 30.4417 172.766 20.4896 180.965 12.2938C189.164 4.09792 199.12 0 210.833 0C222.546 0 232.502 4.09792 240.701 12.2938C248.9 20.4896 253 30.4417 253 42.15C253 53.8583 248.9 63.8104 240.701 72.0063C232.502 80.2021 222.546 84.3 210.833 84.3C205.445 84.3 200.292 83.3025 195.372 81.3074C190.453 79.3216 186.002 76.5725 182.019 73.06L82.9278 130.665C83.3963 132.07 83.7477 133.648 83.9819 135.4C84.2162 137.161 84.3333 138.861 84.3333 140.5C84.3333 142.139 84.2162 143.835 83.9819 145.586C83.7477 147.347 83.3963 148.93 82.9278 150.335L182.019 207.94C186.002 204.427 190.453 201.674 195.372 199.679C200.292 197.693 205.445 196.7 210.833 196.7C222.546 196.7 232.502 200.798 240.701 208.994C248.9 217.19 253 227.142 253 238.85C253 250.558 248.9 260.51 240.701 268.706C232.502 276.902 222.546 281 210.833 281Z" fill="black"/>
</svg>
